<svg width="20" height="20" viewBox="0 0 20 20" xmlns="http://www.w3.org/2000/svg" fill="currentColor"><path d="M9.26027 1.81393C9.65703 1.37749 10.3434 1.37749 10.7401 1.81393L18.4796 10.3273C19.0636 10.9697 18.6078 12 17.7397 12H16.0002V17C16.0002 17.5523 15.5525 18 15.0002 18L13.0002 18C12.448 18 12.0002 17.5523 12.0002 17V15C12.0002 13.8954 11.1048 13 10.0002 13C8.89567 13 8.00024 13.8954 8.00024 15V17C8.00024 17.5523 7.55253 18 7.00024 18L5.00021 18C4.44792 18 4.00021 17.5523 4.00021 17V12H2.26076C1.39261 12 0.936842 10.9697 1.52082 10.3273L9.26027 1.81393Z"/></svg>