<svg width="20" height="20" viewBox="0 0 20 20" xmlns="http://www.w3.org/2000/svg" fill="currentColor"><g clip-path="url(#clip0_94_636)"><path fill-rule="evenodd" clip-rule="evenodd" d="M16.0916 6.68685C17.3066 4.58237 16.5855 1.89137 14.4811 0.676342C12.3766 -0.538684 9.68558 0.182367 8.47055 2.28685L3.72055 10.5141C2.09131 13.336 3.05817 16.9444 5.8801 18.5736C8.70202 20.2029 12.3104 19.236 13.9396 16.4141L16.9396 11.2179C17.1882 10.7875 17.0407 10.237 16.6102 9.98852C16.1798 9.73999 15.6293 9.88748 15.3808 10.3179L12.3808 15.5141C11.2486 17.4751 8.7411 18.147 6.7801 17.0148C4.8191 15.8826 4.14721 13.3751 5.27939 11.4141L10.0294 3.18685C10.7474 1.94329 12.3375 1.51722 13.5811 2.23519C14.8246 2.95316 15.2507 4.54329 14.5327 5.78685L9.78273 14.0141C9.47897 14.5402 8.80622 14.7205 8.2801 14.4167C7.75398 14.113 7.57371 13.4402 7.87747 12.9141L12.1275 5.55288C12.376 5.12242 12.2285 4.57198 11.798 4.32346C11.3676 4.07493 10.8172 4.22242 10.5686 4.65288L6.31862 12.0141C5.51781 13.4011 5.99305 15.1748 7.3801 15.9756C8.76715 16.7764 10.5408 16.3011 11.3416 14.9141L16.0916 6.68685Z"/></g><defs><clipPath id="clip0_94_636"><rect width="20" height="20"/></clipPath></defs></svg>