<svg width="24" height="24" viewBox="0 0 24 24" xmlns="http://www.w3.org/2000/svg" fill="currentColor"><path d="M4 18.4667V4.93333C4 4.42058 4.20369 3.92883 4.56626 3.56626C4.92883 3.20369 5.42058 3 5.93333 3H18.8867C19.0405 3 19.188 3.06111 19.2968 3.16988C19.4056 3.27865 19.4667 3.42617 19.4667 3.58V16.2569M5.93333 16.5333H19.4667M5.93333 20.4H19.4667" stroke-width="1.5" stroke-linecap="round"/><path d="M5.93333 20.4001C5.42058 20.4001 4.92883 20.1964 4.56626 19.8338C4.20369 19.4713 4 18.9795 4 18.4668C4 17.954 4.20369 17.4622 4.56626 17.0997C4.92883 16.7371 5.42058 16.5334 5.93333 16.5334" stroke-width="1.5" stroke-linecap="round" stroke-linejoin="round"/><path d="M8.83301 6.8667H14.633" stroke-width="1.5" stroke-linecap="round"/></svg>