<svg width="20" height="20" viewBox="0 0 20 20" xmlns="http://www.w3.org/2000/svg" fill="currentColor"><g clip-path="url(#clip0_94_596)"><path fill-rule="evenodd" clip-rule="evenodd" d="M18.4853 11C19.0376 11 19.4853 10.5523 19.4853 10C19.4853 9.44772 19.0376 9 18.4853 9L11 9L11 1.51475C11 0.962466 10.5523 0.514753 9.99999 0.514753C9.4477 0.514753 8.99999 0.962466 8.99999 1.51475L8.99999 9H1.51477C0.962487 9.00001 0.514774 9.44772 0.514774 10C0.514774 10.5523 0.962488 11 1.51477 11L8.99999 11L8.99998 18.4852C8.99999 19.0375 9.4477 19.4852 9.99999 19.4852C10.5523 19.4852 11 19.0375 11 18.4852L11 11L18.4853 11Z"/></g><defs><clipPath id="clip0_94_596"><rect width="20" height="20"/></clipPath></defs></svg>