<svg width="20" height="20" viewBox="0 0 20 20" xmlns="http://www.w3.org/2000/svg" fill="currentColor"><g clip-path="url(#clip0_94_587)"><path fill-rule="evenodd" clip-rule="evenodd" d="M7.50449 2.33058C8.33946 -0.0173799 11.66 -0.0173799 12.495 2.33058C12.6634 2.80421 13.2044 3.02832 13.6584 2.81251C15.9091 1.74266 18.2571 4.09062 17.1872 6.3413C16.9714 6.7953 17.1955 7.33633 17.6691 7.50476C20.0171 8.33973 20.0171 11.6603 17.6691 12.4952C17.1955 12.6637 16.9714 13.2047 17.1872 13.6587C18.2571 15.9094 15.9091 18.2573 13.6584 17.1875C13.2044 16.9717 12.6634 17.1958 12.495 17.6694C11.66 20.0174 8.33946 20.0174 7.50449 17.6694C7.33606 17.1958 6.79503 16.9717 6.34102 17.1875C4.09035 18.2573 1.74238 15.9094 2.81223 13.6587C3.02804 13.2047 2.80394 12.6637 2.33031 12.4952C-0.0176545 11.6603 -0.0176545 8.33973 2.33031 7.50476C2.80394 7.33633 3.02804 6.7953 2.81223 6.3413C1.74238 4.09062 4.09035 1.74266 6.34102 2.81251C6.79503 3.02832 7.33606 2.80422 7.50449 2.33058ZM10.799 2.93369C10.5315 2.18158 9.4679 2.18158 9.20044 2.93369C8.67463 4.41231 6.98561 5.11192 5.56826 4.43819C4.84732 4.09549 4.09522 4.8476 4.43791 5.56853C5.11164 6.98588 4.41203 8.6749 2.93341 9.20072C2.18131 9.46817 2.18131 10.5318 2.93341 10.7993C4.41203 11.3251 5.11164 13.0141 4.43791 14.4315C4.09522 15.1524 4.84732 15.9045 5.56826 15.5618C6.98561 14.8881 8.67463 15.5877 9.20044 17.0663C9.4679 17.8184 10.5315 17.8184 10.799 17.0663C11.3248 15.5877 13.0138 14.8881 14.4312 15.5618C15.1521 15.9045 15.9042 15.1524 15.5615 14.4315C14.8878 13.0141 15.5874 11.3251 17.066 10.7993C17.8181 10.5318 17.8181 9.46817 17.066 9.20072C15.5874 8.6749 14.8878 6.98588 15.5615 5.56853C15.9042 4.8476 15.1521 4.09549 14.4312 4.43819C13.0138 5.11192 11.3248 4.41231 10.799 2.93369Z"/><path fill-rule="evenodd" clip-rule="evenodd" d="M13.7997 10C13.7997 12.0987 12.0984 13.8 9.99971 13.8C7.90103 13.8 6.19971 12.0987 6.19971 10C6.19971 7.90133 7.90103 6.20001 9.99971 6.20001C12.0984 6.20001 13.7997 7.90133 13.7997 10ZM9.99971 12C11.1043 12 11.9997 11.1046 11.9997 10C11.9997 8.89544 11.1043 8.00001 9.99971 8.00001C8.89514 8.00001 7.99971 8.89544 7.99971 10C7.99971 11.1046 8.89514 12 9.99971 12Z"/></g><defs><clipPath id="clip0_94_587"><rect width="20" height="20"/></clipPath></defs></svg>