<svg width="20" height="20" viewBox="0 0 20 20" xmlns="http://www.w3.org/2000/svg" fill="currentColor"><path fill-rule="evenodd" clip-rule="evenodd" d="M14.0833 4.72756L7.217 9.72755L6.15742 8.27246L13.0238 3.27247L14.0833 4.72756ZM7.217 10.0349L14.0833 15.0349L13.0238 16.49L6.15742 11.49L7.217 10.0349Z"/><path fill-rule="evenodd" clip-rule="evenodd" d="M15.0001 1.90001C14.3926 1.90001 13.9001 2.39249 13.9001 3.00001C13.9001 3.60752 14.3926 4.10001 15.0001 4.10001C15.6076 4.10001 16.1001 3.60752 16.1001 3.00001C16.1001 2.39249 15.6076 1.90001 15.0001 1.90001ZM12.1001 3.00001C12.1001 1.39838 13.3985 0.100006 15.0001 0.100006C16.6017 0.100006 17.9001 1.39838 17.9001 3.00001C17.9001 4.60163 16.6017 5.90001 15.0001 5.90001C13.3985 5.90001 12.1001 4.60163 12.1001 3.00001Z"/><path fill-rule="evenodd" clip-rule="evenodd" d="M5.0001 8.90001C4.39258 8.90001 3.9001 9.39249 3.9001 10C3.9001 10.6075 4.39258 11.1 5.0001 11.1C5.60761 11.1 6.1001 10.6075 6.1001 10C6.1001 9.39249 5.60761 8.90001 5.0001 8.90001ZM2.1001 10C2.1001 8.39838 3.39847 7.10001 5.0001 7.10001C6.60172 7.10001 7.9001 8.39838 7.9001 10C7.9001 11.6016 6.60172 12.9 5.0001 12.9C3.39847 12.9 2.1001 11.6016 2.1001 10Z"/><path fill-rule="evenodd" clip-rule="evenodd" d="M15.0001 15.9C14.3926 15.9 13.9001 16.3925 13.9001 17C13.9001 17.6075 14.3926 18.1 15.0001 18.1C15.6076 18.1 16.1001 17.6075 16.1001 17C16.1001 16.3925 15.6076 15.9 15.0001 15.9ZM12.1001 17C12.1001 15.3984 13.3985 14.1 15.0001 14.1C16.6017 14.1 17.9001 15.3984 17.9001 17C17.9001 18.6016 16.6017 19.9 15.0001 19.9C13.3985 19.9 12.1001 18.6016 12.1001 17Z"/></svg>