<svg width="20" height="20" viewBox="0 0 20 20" xmlns="http://www.w3.org/2000/svg" fill="currentColor"><path fill-rule="evenodd" clip-rule="evenodd" d="M2.5 12.5C3.05228 12.5 3.5 12.9477 3.5 13.5V15.5C3.5 16.0523 3.94772 16.5 4.5 16.5H15.5C16.0523 16.5 16.5 16.0523 16.5 15.5V13.5C16.5 12.9477 16.9477 12.5 17.5 12.5C18.0523 12.5 18.5 12.9477 18.5 13.5V15.5C18.5 17.1569 17.1569 18.5 15.5 18.5H4.5C2.84315 18.5 1.5 17.1569 1.5 15.5V13.5C1.5 12.9477 1.94772 12.5 2.5 12.5Z"/><path fill-rule="evenodd" clip-rule="evenodd" d="M10.0713 12.571C9.519 12.571 9.07129 12.1233 9.07129 11.571L9.07129 3.07101C9.07129 2.51873 9.51901 2.07101 10.0713 2.07101C10.6236 2.07101 11.0713 2.51873 11.0713 3.07101L11.0713 11.571C11.0713 12.1233 10.6236 12.571 10.0713 12.571Z"/><path fill-rule="evenodd" clip-rule="evenodd" d="M9.29289 1.29289C9.68342 0.902367 10.3166 0.902367 10.7071 1.29289L16.7071 7.29289C17.0976 7.68342 17.0976 8.31658 16.7071 8.70711C16.3166 9.09763 15.6834 9.09763 15.2929 8.70711L10 3.41421L4.70711 8.70711C4.31658 9.09763 3.68342 9.09763 3.29289 8.70711C2.90237 8.31658 2.90237 7.68342 3.29289 7.29289L9.29289 1.29289Z"/></svg>